<svg width="1193" height="468" viewBox="0 0 1193 468" fill="none" xmlns="http://www.w3.org/2000/svg">
<path d="M481.743 112.949C483.368 114.445 485.898 114.341 487.395 112.716C488.892 111.092 488.788 108.561 487.163 107.064L484.453 110.006L481.743 112.949ZM344.953 19.0065L346.104 15.1758L344.953 19.0065ZM150.953 34.5065L152.945 37.9752L150.953 34.5065ZM10.9526 144.506L14.7133 145.869L10.9526 144.506ZM50.9527 304.006L54.2598 301.756L50.9527 304.006ZM219.953 317.506L220.546 313.551L219.953 317.506ZM344.953 426.006L345.681 422.073L344.953 426.006ZM659.953 434.006L659.492 437.98L659.953 434.006ZM920.453 458.506L921.091 462.455L920.453 458.506ZM1108.45 389.006L1110.47 392.461L1108.45 389.006ZM484.453 110.006C487.163 107.064 487.162 107.064 487.161 107.063C487.16 107.062 487.159 107.061 487.158 107.06C487.155 107.057 487.151 107.053 487.145 107.048C487.135 107.039 487.119 107.024 487.099 107.006C487.059 106.969 487 106.915 486.922 106.844C486.766 106.702 486.537 106.492 486.235 106.219C485.633 105.673 484.744 104.874 483.595 103.852C481.295 101.808 477.948 98.8724 473.745 95.2956C465.342 88.1441 453.503 78.4178 439.761 68.1169C412.398 47.6063 377.042 24.4754 346.104 15.1758L344.953 19.0065L343.801 22.8371C373.288 31.7006 407.682 54.0696 434.963 74.5183C448.542 84.697 460.249 94.3151 468.561 101.388C472.715 104.924 476.018 107.821 478.279 109.831C479.41 110.836 480.28 111.619 480.865 112.149C481.157 112.414 481.379 112.616 481.526 112.75C481.6 112.817 481.655 112.868 481.691 112.901C481.709 112.918 481.723 112.93 481.731 112.938C481.736 112.942 481.739 112.945 481.741 112.947C481.742 112.947 481.742 112.948 481.743 112.948C481.743 112.949 481.743 112.949 484.453 110.006ZM344.953 19.0065L346.104 15.1758C309.47 4.16389 276.944 -1.55172 245.133 0.36621C213.27 2.28731 182.373 11.8512 148.961 31.0377L150.953 34.5065L152.945 37.9752C185.442 19.3139 215.152 10.1884 245.615 8.35171C276.13 6.51189 307.649 11.9702 343.801 22.8371L344.953 19.0065ZM150.953 34.5065L148.961 31.0377C135.958 38.5045 122.06 45.532 108.024 52.8511C94.0394 60.1434 79.9679 67.7 66.8644 76.126C40.6794 92.9638 17.9191 113.546 7.19201 143.143L10.9526 144.506L14.7133 145.869C24.5684 118.678 45.6172 99.2999 71.1913 82.8549C83.9673 74.6395 97.7628 67.2241 111.723 59.9447C125.632 52.6921 139.757 45.5483 152.945 37.9752L150.953 34.5065ZM10.9526 144.506L7.19201 143.143C-13.7029 200.796 14.339 257.305 47.6456 306.257L50.9527 304.006L54.2598 301.756C21.0018 252.877 -4.71145 199.465 14.7133 145.869L10.9526 144.506ZM50.9527 304.006L47.6456 306.257C66.1402 333.438 95.7006 334.192 126.276 330.159C133.984 329.143 141.88 327.803 149.787 326.45C157.72 325.093 165.665 323.722 173.587 322.616C189.452 320.402 204.93 319.298 219.359 321.462L219.953 317.506L220.546 313.551C204.975 311.215 188.595 312.444 172.481 314.693C164.413 315.819 156.339 317.213 148.438 318.564C140.513 319.92 132.763 321.234 125.23 322.228C94.8377 326.237 69.8981 324.74 54.2598 301.756L50.9527 304.006ZM219.953 317.506L219.359 321.462C246.602 325.549 262.375 348.222 279.262 373.247C295.667 397.558 313.171 424.193 344.225 429.94L344.953 426.006L345.681 422.073C318.519 417.047 302.798 393.822 285.894 368.772C269.471 344.436 251.852 318.247 220.546 313.551L219.953 317.506ZM344.953 426.006L344.225 429.94C377.992 436.189 426.418 434.573 481.198 433.251C536.218 431.922 598.085 430.856 659.492 437.98L659.953 434.006L660.414 430.033C598.384 422.837 536.001 423.925 481.005 425.253C425.769 426.587 378.414 428.131 345.681 422.073L344.953 426.006ZM659.953 434.006L659.492 437.98C710.17 443.859 749.49 453.965 789.776 460.734C829.887 467.473 870.098 470.701 921.091 462.455L920.453 458.506L919.814 454.558C869.937 462.624 830.648 459.489 791.102 452.844C751.73 446.229 711.235 435.929 660.414 430.033L659.953 434.006ZM920.453 458.506L921.091 462.455C998.929 449.868 1042.53 432.136 1110.47 392.461L1108.45 389.006L1106.44 385.552C1039.19 424.821 996.518 442.154 919.814 454.558L920.453 458.506ZM1108.45 389.006L1110.47 392.461C1127.6 382.456 1148.25 367.849 1164.53 355.805C1172.69 349.772 1179.79 344.359 1184.85 340.454C1187.38 338.501 1189.4 336.924 1190.79 335.835C1191.48 335.291 1192.02 334.868 1192.38 334.58C1192.56 334.437 1192.7 334.327 1192.8 334.253C1192.84 334.216 1192.88 334.188 1192.9 334.168C1192.91 334.159 1192.92 334.152 1192.93 334.147C1192.93 334.144 1192.94 334.142 1192.94 334.141C1192.94 334.14 1192.94 334.14 1192.94 334.14C1192.94 334.139 1192.94 334.139 1190.45 331.006C1187.97 327.874 1187.97 327.874 1187.96 327.874C1187.96 327.875 1187.96 327.875 1187.96 327.875C1187.96 327.876 1187.96 327.878 1187.96 327.88C1187.95 327.884 1187.94 327.891 1187.93 327.9C1187.91 327.918 1187.88 327.945 1187.83 327.981C1187.74 328.052 1187.6 328.16 1187.43 328.301C1187.07 328.583 1186.54 329.001 1185.85 329.54C1184.48 330.618 1182.47 332.182 1179.96 334.121C1174.93 338.001 1167.88 343.379 1159.78 349.373C1143.53 361.385 1123.18 375.777 1106.44 385.552L1108.45 389.006Z" fill="url(#paint0_linear_637_139)"/>
<defs>
<linearGradient id="paint0_linear_637_139" x1="1169.45" y1="352.006" x2="62.9526" y2="-178.494" gradientUnits="userSpaceOnUse">
<stop stop-color="#006837"/>
<stop offset="1" stop-color="white"/>
</linearGradient>
</defs>
</svg>
