<svg width="24" height="24" viewBox="0 0 24 24" fill="none" xmlns="http://www.w3.org/2000/svg">
<path d="M0.43934 21.236C-0.146447 21.8218 -0.146447 22.7715 0.43934 23.3573C1.02513 23.9431 1.97487 23.9431 2.56066 23.3573L1.5 22.2966L0.43934 21.236ZM23.7966 1.5C23.7966 0.67157 23.1251 -3.25499e-06 22.2966 -2.95996e-06L8.79663 -3.8029e-06C7.96821 -3.8029e-06 7.29663 0.671569 7.29663 1.5C7.29663 2.32842 7.96821 3 8.79663 3H20.7966V15C20.7966 15.8284 21.4682 16.5 22.2966 16.5C23.1251 16.5 23.7966 15.8284 23.7966 15L23.7966 1.5ZM1.5 22.2966L2.56066 23.3573L23.3573 2.56066L22.2966 1.5L21.236 0.439336L0.43934 21.236L1.5 22.2966Z" fill="#006837"/>
</svg>
