<svg width="74" height="74" viewBox="0 0 74 74" fill="none" xmlns="http://www.w3.org/2000/svg">
<path fill-rule="evenodd" clip-rule="evenodd" d="M32.1423 12.7439C21.7876 6.74457 6.58591 8.40957 4.68834 25.6939C2.78548 43.031 12.5429 61.3777 17.7705 68.4024C18.9598 69.9987 20.8838 70.7651 22.8765 70.7651C26.1378 70.7651 29.0555 68.7196 30.1602 65.6433L32.0102 60.5109C32.3802 59.485 33.0577 58.5981 33.9501 57.9713C34.8426 57.3445 35.9067 57.0081 36.9973 57.0081C38.0879 57.0081 39.1519 57.3445 40.0444 57.9713C40.9369 58.5981 41.6143 59.485 41.9843 60.5109L43.8343 65.6433C44.9443 68.7196 47.8621 70.7651 51.1286 70.7651C53.1161 70.7651 55.0401 69.9987 56.2241 68.4024C61.4569 61.3777 71.2196 43.031 69.3115 25.6939C67.4139 8.40957 52.2122 6.74457 41.8522 12.7439C38.6015 14.6309 35.4036 14.6309 32.1423 12.7439ZM44.6695 21.7243C45.0781 21.5699 45.5134 21.4981 45.9499 21.5131C46.3865 21.5281 46.8158 21.6294 47.2129 21.8114C47.6101 21.9934 47.9672 22.2523 48.2636 22.5732C48.56 22.8941 48.7898 23.2706 48.9397 23.6809C49.0897 24.0912 49.1567 24.5272 49.1371 24.9635C49.1174 25.3999 49.0114 25.8281 48.8251 26.2232C48.6389 26.6184 48.3761 26.9727 48.052 27.2656C47.7279 27.5585 47.349 27.7842 46.9371 27.9297C43.1578 29.304 39.9599 30.0969 36.7145 30.0863C33.4479 30.081 30.4245 29.267 26.9729 27.898C26.5696 27.7377 26.2019 27.4995 25.8906 27.197C25.5794 26.8945 25.3308 26.5337 25.159 26.1352C24.9872 25.7366 24.8956 25.3081 24.8894 24.8742C24.8832 24.4402 24.9626 24.0093 25.1229 23.606C25.2833 23.2027 25.5215 22.835 25.8239 22.5237C26.1264 22.2125 26.4872 21.9639 26.8858 21.7921C27.2843 21.6203 27.7128 21.5287 28.1467 21.5225C28.5807 21.5163 29.0116 21.5957 29.4149 21.756C32.4648 22.9717 34.6213 23.4739 36.7303 23.4791C38.8605 23.4844 41.2179 22.9823 44.6695 21.7243Z" fill="white"/>
</svg>
